<svg enable-background="new 0 0 50 30.6" viewBox="0 0 50 30.6" xmlns="http://www.w3.org/2000/svg"><path d="m25 30.5c-13.6 0-24.7-6.8-24.7-15.1s11.1-15.2 24.7-15.2 24.7 6.8 24.7 15.1-11.1 15.2-24.7 15.2zm0-29.5c-13.2 0-23.9 6.4-23.9 14.3s10.7 14.3 23.9 14.3 23.9-6.4 23.9-14.3-10.7-14.3-23.9-14.3z"/><path d="m23.1 3.4v5.9h-1.3v-5.9z"/><path d="m23.8 4.5v-1.1h4.8v1.1h-1.8v4.8h-1.3v-4.8z"/><path d="m16.2 13.6c.1-.3.2-.5.4-.7s.4-.4.7-.5.6-.2.9-.2.5 0 .8.1c.2.1.4.2.6.4s.3.3.4.6c.1.2.2.5.2.8s0 .5-.1.8c-.1.2-.2.4-.4.6s-.3.3-.5.4-.4.3-.6.4-.4.3-.6.4-.4.3-.5.5h2.7v1h-4.2c0-.3 0-.6.1-.9.1-.2.2-.5.4-.7s.4-.4.6-.5c.2-.2.5-.3.7-.5.1-.1.3-.2.4-.3s.3-.2.4-.3.2-.2.3-.4c.1-.1.1-.3.1-.5 0-.3-.1-.5-.2-.7-.2-.2-.4-.2-.6-.2s-.3 0-.4.1-.2.2-.3.3-.1.3-.2.4v.5h-1.1c-.1-.3 0-.6 0-.9z"/><path d="m20.9 13.1c.1-.2.3-.4.5-.5s.4-.2.6-.3.5-.1.7-.1c.4 0 .7.1.9.2s.4.2.6.4.3.3.3.5c.1.2.1.3.1.5 0 .3-.1.5-.2.8-.1.2-.4.4-.6.5.3.1.6.2.8.5s.3.6.3.9-.1.6-.2.8-.3.4-.5.6c-.2.1-.4.3-.7.3-.3.1-.5.1-.8.1s-.6 0-.8-.1c-.3-.1-.5-.2-.7-.3s-.4-.3-.5-.6c-.1-.2-.2-.5-.2-.8 0-.4.1-.7.3-.9s.5-.4.8-.5c-.3-.1-.5-.2-.6-.4s-.2-.5-.2-.8c0-.4 0-.6.1-.8zm.9 3.6c.1.1.1.2.2.3s.2.2.3.2.3.1.4.1.3 0 .4-.1c.1 0 .2-.1.3-.2s.2-.2.2-.3.1-.3.1-.4 0-.3-.1-.4-.1-.2-.2-.3-.2-.1-.3-.2c-.1 0-.2-.1-.4-.1-.3 0-.5.1-.7.2-.2.2-.3.4-.3.7s0 .4.1.5zm.3-2.3c.2.1.4.2.6.2s.5-.1.6-.2c.2-.1.2-.3.2-.6 0-.1 0-.2 0-.3s-.1-.2-.1-.3c-.1-.1-.2-.2-.3-.2-.1-.1-.3-.1-.4-.1s-.2 0-.3.1c-.1 0-.2.1-.3.2s-.1.1-.2.2c0 .1-.1.2-.1.3 0 .4.1.6.3.7z"/><path d="m27.3 14.6c.1 0 .3 0 .4-.1s.2-.1.3-.2.1-.2.1-.4-.1-.4-.2-.6c-.2-.1-.4-.2-.6-.2-.3 0-.5.1-.7.3s-.2.4-.2.7h-1.1c0-.3.1-.6.2-.8s.2-.5.4-.6c.2-.2.4-.3.6-.4s.5-.1.8-.1c.2 0 .5 0 .7.1l.6.3c.2.1.3.3.4.5s.2.4.2.7-.1.5-.2.7-.3.4-.6.4c.3.1.6.2.8.5.2.2.3.5.3.9 0 .3-.1.6-.2.8s-.3.4-.5.6-.4.3-.7.4-.5.1-.8.1-.6 0-.9-.1-.5-.2-.7-.4-.3-.4-.4-.7-.1-.6-.1-.9h1.1c0 .2 0 .3.1.4s.1.3.2.4.2.2.3.2c.1.1.3.1.4.1.3 0 .5-.1.7-.2.2-.2.3-.4.3-.7 0-.2 0-.4-.1-.5s-.2-.2-.3-.3-.3-.1-.4-.1c-.2 0-.3 0-.4 0v-.8c-.1 0 0 0 .2 0z"/><path d="m31.9 14.6c.1 0 .3 0 .4-.1s.2-.1.3-.2.1-.2.1-.4-.1-.4-.2-.6c-.2-.1-.4-.2-.6-.2-.3 0-.5.1-.7.3s-.2.4-.2.7h-1.1c0-.3.1-.6.2-.8s.2-.5.4-.6c.2-.2.4-.3.6-.4s.5-.1.8-.1c.2 0 .5 0 .7.1s.4.2.6.3.3.3.4.5.2.4.2.7-.1.5-.2.7-.3.4-.6.4c.3.1.6.2.8.5.2.2.3.5.3.9 0 .3-.1.6-.2.8s-.3.4-.5.6-.4.3-.7.4-.5.1-.8.1-.6 0-.9-.1-.5-.2-.7-.4-.3-.4-.4-.7-.1-.6-.1-.9h1.1c0 .2 0 .3.1.4s.1.3.2.4.2.2.3.2c.1.1.3.1.4.1.3 0 .5-.1.7-.2.2-.2.3-.4.3-.7 0-.2 0-.4-.1-.5s-.2-.2-.3-.3-.3-.1-.4-.1c-.2 0-.3 0-.5 0v-.8z"/><path d="m23.6 22.7c-.1-.1-.2-.2-.3-.3s-.2-.2-.4-.2c-.1-.1-.3-.1-.5-.1-.3 0-.5.1-.7.2s-.4.3-.5.5-.2.4-.3.6-.1.5-.1.8c0 .2 0 .5.1.7s.1.4.3.6c.1.2.3.3.5.4s.5.2.7.2c.4 0 .7-.1.9-.4s.4-.6.4-1h1.3c0 .4-.1.7-.3 1-.1.3-.3.6-.5.8s-.5.4-.8.5-.6.2-1 .2c-.5 0-.9-.1-1.2-.2-.4-.2-.7-.4-.9-.6-.2-.3-.4-.6-.6-1-.1-.4-.2-.8-.2-1.2s.1-.8.2-1.2.3-.7.6-1c.2-.3.6-.5.9-.7.4-.2.8-.2 1.2-.2.3 0 .6 0 .9.1s.5.2.8.4c.2.2.4.4.6.7.1.3.2.6.3.9h-1.3c0-.2 0-.4-.1-.5z"/><path d="m30.4 21.1v1.1h-3.1v1.3h2.9v1h-2.9v1.4h3.2v1.1h-4.5v-5.9z"/></svg>