<svg height="37" viewBox="0 0 111 37" width="111" xmlns="http://www.w3.org/2000/svg" xmlns:xlink="http://www.w3.org/1999/xlink"><mask id="a" fill="#fff"><path d="m50.9254046 35h-50.74436518v-34.88132012h50.74436518z" fill="none"/></mask><mask id="b" fill="#fff"><path d="m3.84171429.0348303v6.78787879h-3.79051429v-6.78787879z" fill="none"/></mask><g fill="none" fill-rule="evenodd" transform=""><path d="m.18103942 10.3363323 7.14994606 24.663689s17.03294192-4.5574695 43.39401662-3.3935061l.2004025-31.48783532s-36.6421245.52585366-50.74436518 10.21765242" fill="#d9d9d9" mask="url(#a)" transform="translate(2 2)"/><path d="m0 10.2522592 7.18614515 24.7477408s17.11896445-4.573001 43.61286315-3.405285l.2009917-31.594715s-36.8265745.52743158-51 10.2522592" fill="#fefefe"/><path d="m35.8894109 16.0633151c.7933998 5.1855522-2.7672339 10.0325099-7.9526909 10.8261041-5.1856694.7933819-10.0325242-2.7673838-10.8261364-7.9533609-.7933998-5.1855522 2.7674464-10.03229741 7.9531158-10.82546683 5.1856694-.79338184 10.0323118 2.76695903 10.8257115 7.95272363" fill="#e20714"/><path d="m18.9813098 12c-1.5222544 2.0303054-2.2745347 4.7011237-1.875515 7.4677601.3990198 2.7672838 1.8694137 5.0777057 3.8942052 6.5322399z" fill="#009640"/><path d="m25 27.5091398-3.1085777.4908602-2.8914223-19.50892715 3.1085777-.49107285z" fill="#fefefe"/><g fill="#1d1d1b"><path d="m55 4.57727273c0-.34639394.0480769-.67687879.1442308-.99166667.0961538-.31457576.2403846-.58863636.4326923-.8219697.1923077-.23333333.4294231-.41893939.7115384-.55681818.2821154-.13787879.6057693-.20681818.9713462-.20681818.2498077 0 .4807692.03181818.6923077.09545455.2113461.06363636.3953846.14848484.5528846.25454545.1569231.10606061.2786538.22633333.3653846.36060606.0863462.13427273.1296154.27575758.1296154.42424242 0 .14148485-.0382692.25115152-.1153846.32878788-.0769231.07784849-.1667308.11666667-.2692308.11666667-.1090384 0-.2051923-.01590909-.2884615-.04772727-.0834616-.03181818-.1796154-.08654546-.2884616-.16439394-.1025-.07063637-.2130769-.13066667-.3317307-.18030303-.1186539-.04942424-.2707693-.07424243-.4567308-.07424243-.3076923 0-.5721154.11327273-.7930769.33939394-.2213462.22633334-.3319231.57633334-.3319231 1.05v2.00454546c0 .47366666.1105769.82196969.3319231 1.04469697.2209615.22272727.4853846.33409091.7930769.33409091.1859615 0 .335-.01590909.4469231-.04772728.1123077-.03181818.2198077-.07954545.3223077-.14318181.0705769-.04942425.1315384-.09015152.1825-.1219697.0515384-.03181818.0976923-.05642424.1398077-.07424243.0413461-.01760606.0848077-.02990909.1296153-.03712121.0446154-.007.0961539-.01060606.1540385-.01060606.1280769 0 .2226923.04072727.2834615.1219697.0609616.08145454.0913462.18221212.0913462.30227273 0 .14848484-.0432692.28996969-.1296154.42424242-.0867308.13448485-.2084615.25284848-.3653846.35530303-.1575.10245455-.3415385.18560606-.5528846.24924242-.2115385.06363637-.4425.09545455-.6923077.09545455-.3655769 0-.6892308-.06893939-.9713462-.20681818-.2821153-.13787879-.5192307-.32348485-.7115384-.55681818-.1923077-.23333334-.3365385-.50548485-.4326923-.81666667-.0961539-.3109697-.1442308-.64336364-.1442308-.9969697z"/><path d="m62.4997984 9c-.4433826 0-.8230503-.06724242-1.1388015-.20151515-.3163562-.13427273-.5750464-.31457576-.7766756-.54090909-.2016291-.22612121-.3492217-.49127273-.4433825-.79545455-.0941608-.30396969-.1409388-.62215151-.1409388-.95454545v-4.00909091c0-.12727273.0550448-.24224243.1661424-.34469697.1110977-.10245455.2570772-.15378788.4387451-.15378788.1744092 0 .313735.05133333.4181789.15378788.103839.10245454.1562626.21742424.1562626.34469697v3.99848485c0 .89812121.4399548 1.34696969 1.3204694 1.34696969.8738608 0 1.3105895-.44884848 1.3105895-1.34696969v-3.99848485c0-.12727273.0554481-.24224243.1665457-.34469697.1106944-.10245455.2500202-.15378788.4181789-.15378788.1816679 0 .3276474.05133333.4387451.15378788.1106944.10245454.1661424.21742424.1661424.34469697v4.00909091c0 .33239394-.046778.65057576-.1409388.95454545-.0941608.30418182-.2421566.56933334-.4437858.79545455-.2016291.22633333-.4603194.40663636-.7762723.54090909-.3157512.13427273-.6954189.20151515-1.1392047.20151515"/><path d="m67 4.57727273c0-.34639394.0480792-.67687879.1442377-.99166667.0961585-.31457576.2403962-.58863636.4327131-.8219697.192317-.23333333.4292514-.41893939.7113804-.55681818.2821289-.13787879.6059906-.20681818.9713928-.20681818.2498197 0 .4807924.03181818.692341.09545455.2113563.06363636.3954036.14848484.5529112.25454545.1569306.10606061.2786672.22633333.3654022.36060606.0863503.13427273.1296216.27575758.1296216.42424242 0 .14148485-.0382711.25115152-.1153902.32878788-.0769267.07784849-.1667387.11666667-.2692437.11666667-.1090437 0-.2052021-.01590909-.2884754-.04772727-.0834655-.03181818-.179624-.08654546-.2884754-.16439394-.1025049-.07063637-.2130872-.13066667-.3317467-.18030303-.1186596-.04942424-.2707823-.07424243-.4567527-.07424243-.3075148 0-.5719506.11327273-.7933074.33939394-.2211645.22633334-.3315544.57633334-.3315544 1.05v2.00454546c0 .47366666.1103899.82196969.3315544 1.04469697.2213568.22272727.4857926.33409091.7933074.33409091.1859704 0 .3350161-.01590909.4469445-.04772728.1123131-.03181818.2198183-.07954545.3223232-.14318181.0705803-.04942425.1315448-.09015152.1825088-.1219697.0515409-.03181818.097697-.05642424.1398144-.07424243.0413481-.01760606.0848118-.02990909.1296216-.03712121.0446175-.007.0961585-.01060606.1540459-.01060606.1280831 0 .222703.04072727.2834752.1219697.0609644.08145454.0913505.18221212.0913505.30227273 0 .14848484-.0432713.28996969-.1296216.42424242-.086735.13448485-.2084716.25284848-.3654022.35530303-.1575076.10245455-.3415549.18560606-.5529112.24924242-.2115486.06363637-.4425213.09545455-.692341.09545455-.3654022 0-.6892639-.06893939-.9713928-.20681818-.282129-.13787879-.5190634-.32348485-.7113804-.55681818-.1923169-.23333334-.3365546-.50548485-.4327131-.81666667-.0961585-.3109697-.1442377-.64336364-.1442377-.9969697z"/><path d="m72 2.49924127c0-.12746585.045812-.24261001.1369231-.34522003.0911111-.10261001.2162393-.15402124.3758974-.15402124.1425641 0 .2594872.05141123.3505983.15402124.0911111.10261002.1365812.21775418.1365812.34522003v6.00151746c0 .12746585-.0454701.24261001-.1365812.34522003-.0911111.10261001-.2080342.15402124-.3505983.15402124-.1596581 0-.2847863-.05141123-.3758974-.15402124-.0911111-.10261002-.1369231-.21775418-.1369231-.34522003z"/><path d="m75 2.49848485c0-.12727273.054888-.24224243.1648637-.34469697.1095764-.10245455.2542812-.15378788.4339148-.15378788.1461019 0 .2694503.04072727.3692467.1219697.0997964.08124242.1628678.175.1898128.2810606l2.684324 4.16818182v-4.07272727c0-.12727273.0534909-.24224243.1598738-.34469697.106383-.10245455.252485-.15378788.4389047-.15378788.1664604 0 .300986.05133333.4041755.15378788.1029899.10245454.154884.21742424.154884.34469697v6.0030303c0 .12727273-.0518941.24224243-.154884.34469697-.1031895.10245455-.2377151.15378788-.4041755.15378788-.146102 0-.2678536-.03012121-.3640573-.09015152-.0968026-.0600303-.1648637-.13957575-.2047823-.23863636l-.0299389-.0530303-2.6745439-4.12575758v4.00909091c0 .12727273-.051495.24224243-.1544849.34469697-.1031895.10245455-.2413077.15378788-.4143547.15378788-.1796336 0-.3243384-.05133333-.4339148-.15378788-.1099757-.10245454-.1648637-.21742424-.1648637-.34469697z"/><path d="m83.7612112 6.36406169h1.4966951l-.7388481-2.63330243zm3.2238725 1.95374051c.0318569.12062224.012666.24612883-.0573806.3769445-.0704305.13102803-.1919086.22128235-.3646264.27076295-.1600517.04247262-.3026398.0282443-.4269966-.04247262-.1247406-.07071691-.2032312-.16606794-.2354719-.28669018l-.3450516-1.23170598h-2.0919956l-.354839 1.24232414c-.0387656.12040987-.1199429.21618563-.2448754.28669018-.1247406.07071691-.2638743.08494524-.4175931.04247262-.1723339-.04969297-.2957312-.13952256-.3690403-.27076295-.0738848-.13081567-.0946109-.25653463-.0627541-.3769445l1.8808962-5.88245785c.0318568-.12019752.1038226-.22468016.2158972-.31323557.1116908-.08834305.247754-.13272694.4078057-.13272694.1537188 0 .2878629.04438389.4030081.13272694.1149533.08855541.1884542.19303805.2206949.31323557z"/><path d="m57.5110047 13.8818182c0-.1624849.0512843-.2950606.1549212-.3977273.1029958-.1022424.2403949-.1537879.410915-.1537879h1.3143724c.1993675 0 .3508697.0424243.4540792.1272728.1029959.0848484.1547075.2227272.1547075.4136363v2.0681818c-.0850464.1414849-.1884696.2757576-.3096286.4030303-.1209454.1272728-.2707381.2405455-.4485235.339394-.1782127.0990606-.3904013.1769091-.6357109.2333333-.245737.0564243-.539553.0848485-.8814479.0848485-.4418992 0-.8318732-.0672424-1.1701355-.2015152-.338476-.1342727-.6233172-.3181818-.8547374-.5515151-.2316338-.2333333-.4060002-.5052727-.5235266-.8166667-.1175264-.3109697-.1762896-.6431515-.1762896-.9969697v-1.8560606c0-.3463939.0570537-.6768788.1709475-.9916666.1138937-.3145758.2848412-.5886364.5128424-.8219697.2280012-.2333334.5092098-.4189394.8440532-.5568182.3346297-.1378788.7226804-.2068182 1.1647933-.2068182.4060003 0 .76905.0583333 1.0895765.175s.5626309.2598485.7267405.4295455c.1279969.1414848.190179.2793636.1869738.4136363-.0038463.1344849-.0519253.2458485-.1444506.3340909-.092739.0884546-.2175307.1397879-.3739476.1537879-.1566307.0142121-.3168939-.0318182-.4807898-.1378788-.121159-.0776363-.2797128-.1395757-.4754477-.185606-.1961622-.0458182-.3756571-.0689394-.539553-.0689394-.4062139 0-.7461857.1113636-1.0203427.3340909-.274157.2227272-.4113424.5746363-.4113424 1.055303v2.0151515c0 .2333334.0373948.4367576.1121843.6098485.0747895.173303.1797085.3164849.3151844.4295455.1352622.1132727.2901834.1962121.4647635.2492424.1743664.0530303.3649728.0795454.5716056.0795454.2066327 0 .3722381-.0159091.4966024-.0477272.1247917-.0318182.2442412-.0795455.358135-.1431819l.1925296-.1378787v-1.1242425h-.6842173c-.1705201 0-.3079192-.0511212-.410915-.1537878-.1036369-.1022425-.1549212-.2348182-.1549212-.3977273"/><path d="m61 10.4992413c0-.1274659.045812-.24261.1369231-.3452201.0911111-.10261.2162393-.1540212.3758974-.1540212.1425641 0 .2594872.0514112.3505983.1540212.0911111.1026101.1365812.2177542.1365812.3452201v6.0015174c0 .1274659-.0454701.24261-.1365812.3452201-.0911111.10261-.2080342.1540212-.3505983.1540212-.1596581 0-.2847863-.0514112-.3758974-.1540212-.0911111-.1026101-.1369231-.2177542-.1369231-.3452201z"/><path d="m65.7612112 14.3640617h1.4966951l-.7388481-2.6333024zm3.2238725 1.9537405c.0318569.1206222.012666.2461288-.0573806.3769445-.0704305.131028-.1919086.2212824-.3646264.270763-.1600517.0424726-.3026398.0282442-.4269966-.0424727-.1247406-.0707169-.2032312-.1660679-.2354719-.2866901l-.3450516-1.231706h-2.0919956l-.354839 1.2423241c-.0387656.1204099-.1199429.2161856-.2448754.2866902-.1247406.0707169-.2638743.0849452-.4175931.0424726-.1723339-.049693-.2957312-.1395225-.3690403-.2707629-.0738848-.1308157-.0946109-.2565347-.0627541-.3769445l1.8808962-5.8824579c.0318568-.1201975.1038226-.2246802.2158972-.3132356.1116908-.088343.247754-.1327269.4078057-.1327269.1537188 0 .2878629.0443839.4030081.1327269.1149533.0885554.1884542.1930381.2206949.3132356z"/><path d="m71.3479263 11.0769231v2.3584615h.8527649c.2534563 0 .4721199-.0286461.6566821-.0861538.1841014-.0572923.3357143-.132677.4548387-.2261539.118894-.0932615.2076037-.2009538.2652074-.3230769.0576036-.1219077.0864055-.2476923.0864055-.3769231v-.2476923c0-.3086461-.1152074-.5690461-.3456221-.7807692-.2304148-.2117231-.6029954-.3176923-1.1175116-.3176923zm-1.3479263-.5707693c0-.1292307.0635945-.2459692.1900922-.35.1267281-.1040307.2937788-.1561538.501152-.1561538h1.509447c.483871 0 .9023042.0575077 1.25553.1723077.3534562.1148.6453917.2746154.8758064.4792308.2304148.2046153.3993088.4432615.5066821.7161538.1076037.2728923.1612903.5671077.1612903.8830769v.1184616c0 .2728923-.05.5348-.1495392.7861538-.0997696.2513539-.2615207.4738462-.4841014.6676923-.222811.1938462-.5108294.35-.8640553.4684616-.3534562.1184615-.7870967.1776923-1.3016129.1776923h-.8527649v2.0246154c0 .1292307-.059447.2459692-.1785715.35-.118894.1040307-.2781106.1561538-.4781106.1561538-.2073732 0-.3744239-.0611692-.501152-.1830769-.1264977-.1221231-.1900922-.2476923-.1900922-.3769231z"/><path d="m77.3479263 11.0769231v2.3584615h.8527649c.2534563 0 .4721199-.0286461.6566821-.0861538.1841014-.0572923.3357143-.132677.4548387-.2261539.118894-.0932615.2076037-.2009538.2652074-.3230769.0576036-.1219077.0864055-.2476923.0864055-.3769231v-.2476923c0-.3086461-.1152074-.5690461-.3456221-.7807692-.2304148-.2117231-.6029954-.3176923-1.1175116-.3176923zm-1.3479263-.5707693c0-.1292307.0635945-.2459692.1900922-.35.1267281-.1040307.2937788-.1561538.501152-.1561538h1.509447c.483871 0 .9023042.0575077 1.25553.1723077.3534562.1148.6453917.2746154.8758064.4792308.2304148.2046153.3993088.4432615.5066821.7161538.1076037.2728923.1612903.5671077.1612903.8830769v.1184616c0 .2728923-.05.5348-.1495392.7861538-.0997696.2513539-.2615207.4738462-.4841014.6676923-.222811.1938462-.5108294.35-.8640553.4684616-.3534562.1184615-.7870967.1776923-1.3016129.1776923h-.8527649v2.0246154c0 .1292307-.059447.2459692-.1785715.35-.118894.1040307-.2781106.1561538-.4781106.1561538-.2073732 0-.3744239-.0611692-.501152-.1830769-.1264977-.1221231-.1900922-.2476923-.1900922-.3769231z"/><path d="m83.1363187 14.2530303c0 .5799394.121932.9916667.3655982 1.2356061.2438639.2439394.5730999.3659091.9881033.3659091.4284415 0 .7610371-.1219697.9979842-.3659091.2371448-.2439394.3559148-.6556667.3559148-1.2356061v-1.4954545c0-.5797273-.11877-.9916667-.3559148-1.2356061-.2369471-.2439394-.5695427-.3659091-.9979842-.3659091-.4150034 0-.7442394.1219697-.9881033.3659091-.2436662.2439394-.3655982.6558788-.3655982 1.2356061zm-1.1363187-1.4954545c0-.3888182.0494052-.7511213.1482155-1.0871213.0988103-.3357878.250583-.6274545.4547251-.875.2041421-.2473333.4628276-.4418484.7754634-.5833333.3130311-.1412727.6835698-.2121212 1.1116162-.2121212.434963 0 .808466.0708485 1.1214971.2121212.3126359.1414849.5732975.336.7806016.5833333.2075017.2475455.3608553.5392122.4596656.875.0988103.336.1482155.6983031.1482155 1.0871213v1.4848484c0 .3890303-.0494052.7513334-.1482155 1.0871213-.0988103.336-.2521639.6276666-.4596656.875-.2073041.2475454-.4679657.4420606-.7806016.5833333-.3130311.1414848-.6865341.2121212-1.1214971.2121212-.4280464 0-.7985851-.0706364-1.1116162-.2121212-.3126358-.1412727-.5713213-.3357879-.7754634-.5833333-.2041421-.2473334-.3559148-.539-.4547251-.875-.0988103-.3357879-.1482155-.698091-.1482155-1.0871213z"/><path d="m89 10.4984848c0-.1272727.054888-.2422424.1648637-.3446969.1095764-.1024546.2542812-.1537879.4339148-.1537879.1461019 0 .2694503.0407273.3692467.1219697s.1628678.175.1898128.2810606l2.684324 4.1681818v-4.0727273c0-.1272727.0534909-.2422424.1598738-.3446969.106383-.1024546.252485-.1537879.4389047-.1537879.1664604 0 .300986.0513333.4041755.1537879.1029899.1024545.154884.2174242.154884.3446969v6.0030304c0 .1272727-.0518941.2422424-.154884.3446969-.1031895.1024546-.2377151.1537879-.4041755.1537879-.146102 0-.2678536-.0301212-.3640573-.0901515-.0968026-.0600303-.1648637-.1395758-.2047823-.2386364l-.0299389-.0530303-2.6745439-4.1257576v4.009091c0 .1272727-.051495.2422424-.1544849.3446969-.1031895.1024546-.2413077.1537879-.4143547.1537879-.1796336 0-.3243384-.0513333-.4339148-.1537879-.1099757-.1024545-.1648637-.2174242-.1648637-.3446969z"/><path d="m99.8538767 10.1585937c.0972815.1056563.1461233.2498125.1461233.4320313 0 .1677813-.0488418.3045-.1461233.4101562-.0968796.1056563-.239385.1585938-.4271142.1585938h-2.2509422v1.7171875h1.5074619c.1943621 0 .3398825.0529375.437365.1585937.0968796.1056563.1455203.2498125.1455203.4320313 0 .1677812-.0486407.3045-.1455203.4101562-.0974825.1056563-.2430029.1585938-.437365.1585938h-1.5074619v1.8046875h2.2509422c.1877292 0 .3302346.0529375.4271142.1585937.0972815.105875.1461233.2498125.1461233.4320313 0 .1677812-.0488418.3045-.1461233.4101562-.0968796.105875-.239385.1585938-.4271142.1585938h-2.8237777c-.1808955 0-.3266168-.0527188-.437365-.1585938-.1101452-.1056562-.1656198-.2242187-.1656198-.3554687v-5.971875c0-.13125.0554746-.2498125.1656198-.3554688.1107482-.1056562.2564695-.1585937.437365-.1585937h2.8237777c.1877292 0 .3302346.0529375.4271142.1585937"/><path d="m103.042646 17c-.094558 0-.211243-.0125152-.349866-.0371212-.138811-.0248182-.283674-.0619394-.434967-.1113636-.151482-.0494243-.301073-.1094546-.449151-.1803031-.148268-.0706363-.282351-.1537879-.401873-.2492424-.11971-.0954545-.217673-.2032121-.293319-.3234849-.075458-.1200606-.11347-.2545454-.11347-.4030303 0-.3321818.163964-.4984848.491703-.4984848.107039.0072121.201598.0407273.283674.1007576.081887.0602424.157723.1255757.227129.1962121.10704.1132727.258144.2140303.453879.3022727.195168.0884546.403385.1325758.623895.1325758.252281 0 .450664-.0617273.595906-.1856061.144674-.1236666.217483-.3198788.217483-.5886363 0-.2263334-.067892-.4119394-.203489-.5568182-.135596-.1448788-.307314-.2738485-.515342-.3871212-.207839-.1130606-.43024-.2227273-.666635-.3287879-.236396-.1060606-.458418-.2386364-.666446-.3977273-.208217-.1590909-.379935-.357-.515531-.5939394-.135597-.2367273-.203111-.5392121-.203111-.9068182 0-.2969697.043875-.5655151.132192-.8060606.088317-.2403333.214269-.4488485.378233-.6257575.163964-.176697.365562-.3128788.605361-.4083334.239422-.0954545.510425-.1431818.813011-.1431818.315447 0 .590989.0441212.827384.1325758.236396.0884545.435157.1962121.595717.3234848.160749.1272727.282162.2598485.364238.3977273.081698.1378788.122926.2528485.122926.3446969 0 .162697-.0365.2952728-.108931.3977273-.072432.1026667-.193845.1537879-.36386.1537879-.101177 0-.190819-.0246061-.269491-.0742424-.079051-.0494243-.152995-.1060606-.222401-.169697-.075457-.0706364-.192142-.1518788-.349865-.2439394-.157723-.0918485-.368588-.1378788-.633351-.1378788-.226939 0-.41303.0689394-.557893.2068182-.145052.1378788-.217484.337697-.217484.5992424 0 .2263334.067515.4066364.203111.5409091.135597.1344849.305801.2545455.510803.3606061.204624.1060606.427025.2121212.666447.3181818.23961.1060606.461633.2386364.666635.3977273s.375017.3589091.510803.5992424c.135218.2405455.2033.5515151.2033.9333333 0 .5939394-.173609 1.0623031-.52007 1.4053031-.346839.343-.82606.5143939-1.437284.5143939"/><path d="m3.70377143.18861818c.09180952.10245455.13809524.24224243.13809524.4189394 0 .16269697-.04628572.29527272-.13809524.39772727-.09219048.10245454-.2272381.15378788-.40476191.15378788h-2.13352381v1.66515151h1.42857143c.18419048 0 .32209524.05133334.41447619.15378788.09180953.10245455.13790477.24224243.13790477.4189394 0 .16269696-.04609524.29527272-.13790477.39772727-.09238095.10245454-.23028571.15378788-.41447619.15378788h-1.42857143v1.75h2.13352381c.17752381 0 .31257143.05133333.40476191.15378788.09180952.10266666.13809524.24224242.13809524.41893939 0 .16269697-.04628572.29527273-.13809524.39772727-.09219048.10266667-.2272381.15378788-.40476191.15378788h-2.67638095c-.17142857 0-.30952381-.05112121-.41409524-.15378788-.1047619-.10245454-.15733333-.21742424-.15733333-.34469697v-5.79090909c0-.12727273.05257143-.24224242.15733333-.34469697.10457143-.10245454.24266667-.15378788.41409524-.15378788h2.67638095c.17752381 0 .31257143.05133334.40476191.15378788" mask="url(#b)" transform="translate(107 10)"/><path d="m56.3479263 19.0769231v2.3584615h.8525345c.2532258 0 .4723503-.0286461.6564516-.0861538.1845623-.0572923.3361752-.132677.45553-.2261539.118894-.0932615.2069124-.2009538.2645161-.3230769.0576037-.1219077.0864056-.2476923.0864056-.3769231v-.2476923c0-.3086461-.1152074-.5690461-.3456222-.7807692-.2304147-.2117231-.6029954-.3176923-1.1172811-.3176923zm-1.3479263-.5707693c0-.1292307.0633641-.2459692.1900922-.35.1267281-.1040307.2937788-.1561538.501152-.1561538h1.5092166c.4836406 0 .9023042.0575077 1.2559908.1723077.352765.1148.6449309.2746154.8753456.4792308.2304148.2046153.3990784.4432615.5071429.7161538.1071428.2728923.1610599.5671077.1610599.8830769v.1184616c0 .2728923-.05.5348-.1497696.7861538-.1.2513539-.2610599.4738462-.483871.6676923-.222811.1936308-.5108294.35-.8640553.4684616-.3532258.1186769-.7875576.1776923-1.3018433.1776923h-.8525345v2.0244c0 .1294461-.0596775.2461846-.1785715.35-.1191244.1042461-.278341.1563692-.4781106.1563692-.2073732 0-.3744239-.0611692-.501152-.1832923-.1267281-.1219077-.1900922-.2474769-.1900922-.3769231z"/><path d="m62.2818974 19.0763748v2.0774033h.9201174c.4969817 0 .8530643-.0824503 1.0682478-.2475662.2154026-.1651159.3232134-.3767312.3232134-.6350611v-.2045112c0-.3084891-.1078108-.5506734-.3232134-.726553-.2151835-.1756644-.5712661-.2637118-1.0682478-.2637118zm-1.2818974-.5704787c0-.1291649.060041-.245844.1807804-.3498218.1205203-.1039778.2793879-.1560743.4766029-.1560743h1.5446315c.4893123 0 .905655.0501591 1.2492473.1506925.3433732.1005334.6190359.2421843.8269881.425168.2083905.1829837.3598078.4019183.4549093.6565886.0946631.2548856.142433.5399096.142433.855718v.0753462c0 .3659674-.0858981.6798383-.2574751.9418279-.1717962.2619896-.4730968.4718827-.903902.6296793l1.216159 2.4433707c.0802008.1005334.0911572.2243165.0326501.3713493-.058288.1470328-.1715771.2710311-.3394289.371134-.1608398.0792212-.3179544.0988112-.4711247.0594159-.1533894-.0396106-.2629533-.1132346-.3286916-.2208721l-1.2271154-2.5832995c-.0587263.0075347-.1207394.0109791-.1862586.0109791h-.2083905-.9201174v2.3249695c0 .1293802-.0569733.2421843-.1698241.339058-.1135081.0966585-.2649254.1453106-.45469.1453106-.197215 0-.3560826-.0574784-.4766029-.17222-.1207394-.1147415-.1807804-.2365871-.1807804-.3659674z"/><path d="m68.1364086 22.2530303c0 .5799394.1215463.9918788.3656271 1.2356061.2434878.2439394.5731451.3661212.9881813.3661212.4280802 0 .760702-.1221818.9980632-.3661212.2371635-.2437273.3555476-.6556667.3555476-1.2356061v-1.4954545c0-.5797273-.1183841-.9916667-.3555476-1.2356061-.2373612-.2439394-.569983-.3659091-.9980632-.3659091-.4150362 0-.7446935.1219697-.9881813.3659091-.2440808.2439394-.3656271.6558788-.3656271 1.2356061zm-1.1364086-1.4954545c0-.3888182.0494091-.7511213.1482272-1.0871213.0988181-.3357878.2502075-.6274545.4543658-.875.2041583-.2473333.4628641-.4418484.77592-.5833333.3126606-.1412727.6832286-.2121212 1.111704-.2121212.4346022 0 .80853.0708485 1.1215858.2121212.3126606.1414849.5729476.336.7806633.5833333.2075181.2475455.3604886.5392122.4593067.875.0988181.336.1482272.6983031.1482272 1.0871213v1.4848484c0 .3888182-.0494091.7513334-.1482272 1.0871213-.0988181.3357878-.2517886.6274545-.4593067.875-.2077157.2475454-.4680027.4418484-.7806633.5833333-.3130558.1414848-.6869836.2121212-1.1215858.2121212-.4284754 0-.7990434-.0706364-1.111704-.2121212-.3130559-.1414849-.5717617-.3357879-.77592-.5833333-.2041583-.2475455-.3555477-.5392122-.4543658-.875-.0988181-.3357879-.1482272-.6983031-.1482272-1.0871213z"/><path d="m75.2913337 19.159375v4.68125h.7946669c.5077039 0 .9048166-.1310313 1.1920004-.39375.2871838-.2625.4302238-.6453125.4302238-1.1484375v-1.44375c0-.5322188-.14304-.9478438-.4302238-1.246875-.2871838-.2988125-.6842965-.4484375-1.1920004-.4484375zm-1.2913337-.6453125c0-.13125.0587171-.2495938.1763719-.3554688.1176549-.1056562.2798993-.1585937.4858505-.1585937h1.4237782c.5004194 0 .9341751.0785312 1.3023708.2351562.3677542.1568438.6712728.368375.9105558.634375.2388416.2664375.4156549.5796876.5297779.940625.1139023.3609376.1712949.7457188.1712949 1.1539063v1.2142812c0 .3935313-.0573926.7616876-.1712949 1.1044688-.114123.343-.2909363.6415938-.5297779.896875-.239283.2552812-.5428016.4556563-.9105558.6015625-.3681957.1459062-.8019514.21875-1.3023708.21875h-1.4237782c-.2059512 0-.3681956-.0527188-.4858505-.1585938-.1176548-.1056562-.1763719-.2242187-.1763719-.3554687z"/><path d="m81.1363187 22.2530303c0 .5799394.121932.9918788.3655982 1.2356061.2438639.2439394.5730999.3661212.9881033.3661212.4284415 0 .7610371-.1221818.9979842-.3661212.2371448-.2437273.3559148-.6556667.3559148-1.2356061v-1.4954545c0-.5797273-.11877-.9916667-.3559148-1.2356061-.2369471-.2439394-.5695427-.3659091-.9979842-.3659091-.4150034 0-.7442394.1219697-.9881033.3659091-.2436662.2439394-.3655982.6558788-.3655982 1.2356061zm-1.1363187-1.4954545c0-.3888182.0494052-.7511213.1482155-1.0871213.0988103-.3357878.250583-.6274545.4547251-.875.2041421-.2473333.4628276-.4418484.7754634-.5833333.3130311-.1412727.6835698-.2121212 1.1116162-.2121212.434963 0 .808466.0708485 1.1214971.2121212.3126359.1414849.5732975.336.7806016.5833333.2075017.2475455.3608553.5392122.4596656.875.0988103.336.1482155.6983031.1482155 1.0871213v1.4848484c0 .3888182-.0494052.7513334-.1482155 1.0871213-.0988103.3357878-.2521639.6274545-.4596656.875-.2073041.2475454-.4679657.4418484-.7806016.5833333-.3130311.1414848-.6865341.2121212-1.1214971.2121212-.4280464 0-.7985851-.0706364-1.1116162-.2121212-.3126358-.1414849-.5713213-.3357879-.7754634-.5833333-.2041421-.2475455-.3559148-.5392122-.4547251-.875-.0988103-.3357879-.1482155-.6983031-.1482155-1.0871213z"/><path d="m90.3970894 18c.2010395 0 .3515592.0521231.451975.1561538.1006237.1040308.1509356.2459693.1509356.4253847 0 .1652-.0503119.2998153-.1509356.4038461-.1004158.1042462-.2509355.1561539-.451975.1561539h-1.3619543v5.3520923c0 .1294461-.0536382.2461846-.1611226.35-.1072765.1042461-.2509356.1563692-.4311851.1563692-.1941788 0-.3467775-.0521231-.4573804-.1563692-.1112266-.1038154-.1663202-.2205539-.1663202-.35v-5.3520923h-1.2268191c-.1802495 0-.3239085-.0519077-.431185-.1561539-.1076923-.1040308-.1611227-.2386461-.1611227-.4038461 0-.1794154.0534304-.3213539.1611227-.4253847.1072765-.1040307.2509355-.1561538.431185-.1561538z"/><path d="m95.3970894 18c.2010395 0 .3515592.0521231.451975.1561538.1006237.1040308.1509356.2459693.1509356.4253847 0 .1652-.0503119.2998153-.1509356.4038461-.1004158.1042462-.2509355.1561539-.451975.1561539h-1.3619543v5.3520923c0 .1294461-.0536382.2461846-.1611226.35-.1072765.1042461-.2509356.1563692-.4311851.1563692-.1941788 0-.3467775-.0521231-.4573804-.1563692-.1112266-.1038154-.1663202-.2205539-.1663202-.35v-5.3520923h-1.2268191c-.1802495 0-.3239085-.0519077-.431185-.1561539-.1076923-.1040308-.1611227-.2386461-.1611227-.4038461 0-.1794154.0534304-.3213539.1611227-.4253847.1072765-.1040307.2509355-.1561538.431185-.1561538z"/><path d="m97 18.4992413c0-.1274659.045812-.24261.1369231-.3452201.0911111-.10261.2162393-.1540212.3758974-.1540212.1425641 0 .2594872.0514112.3505983.1540212.0911111.1026101.1365812.2177542.1365812.3452201v6.0015174c0 .1274659-.0454701.24261-.1365812.3452201-.0911111.10261-.2080342.1540212-.3505983.1540212-.1596581 0-.2847863-.0514112-.3758974-.1540212-.0911111-.1026101-.1369231-.2177542-.1369231-.3452201z"/><path d="m55 26.4994386c0-.1276745.045641-.2428151.1367521-.3452096.0911111-.1026069.2164103-.154229.3760684-.154229.1423932 0 .2593163.0516221.3504274.154229.0911111.1023945.1367521.2175351.1367521.3452096v6.0011228c0 .1276745-.045641.2428151-.1367521.3452096-.0911111.1026069-.2080342.154229-.3504274.154229-.1596581 0-.2849573-.0516221-.3760684-.154229-.0911111-.1023945-.1367521-.2175351-.1367521-.3452096z"/><path d="m61.3970894 26c.2010395 0 .3515592.0521231.451975.1563692.1006237.1038154.1509356.2457539.1509356.4251693 0 .1654153-.0503119.3000307-.1509356.4038461-.1004158.1042462-.2509355.1561539-.451975.1561539h-1.3619543v5.3523077c0 .1292307-.0536382.2459692-.1611226.35-.1072765.1040307-.2509356.1561538-.4311851.1561538-.1941788 0-.3467775-.0521231-.4573804-.1561538-.1112266-.1040308-.1663202-.2207693-.1663202-.35v-5.3523077h-1.2268191c-.1802495 0-.3239085-.0519077-.431185-.1561539-.1076923-.1038154-.1611227-.2384308-.1611227-.4038461 0-.1794154.0534304-.3213539.1611227-.4251693.1072765-.1042461.2509355-.1563692.431185-.1563692z"/><path d="m63.7612112 30.3640547h1.4966951l-.7388481-2.6332982zm3.2238725 1.9537374c.0318569.120622.012666.2459161-.0573806.3771563-.0704305.1310278-.1919086.2210696-.3646264.2705501-.1600517.0424726-.3026398.0282443-.4269966-.0424725-.1247406-.0705045-.2032312-.1660677-.2354719-.2866898l-.3450516-1.231704h-2.0919956l-.354839 1.2423222c-.0387656.1204097-.1199429.2161853-.2448754.2869021-.1247406.0705044-.2638743.0847327-.4175931.0422602-.1723339-.0496929-.2957312-.1395224-.3690403-.2707626-.0738848-.1308154-.0946109-.2565342-.0627541-.3769439l1.8808962-5.882236c.0318568-.1204097.1038226-.2248922.2158972-.3134475.1116908-.0885552.247754-.1327267.4078057-.1327267.1537188 0 .2878629.0441715.4030081.1327267.1149533.0885553.1884542.1930378.2206949.3134475z"/><path d="m69 26.5063692c0-.1294461.0554005-.2461846.1655814-.35.1101809-.1040307.2614987-.1563692.4545736-.1563692.1724031 0 .3137985.0523385.4239794.1563692.1101808.1038154.1651679.2205539.1651679.35v5.3523077h2.2015504c.1930749 0 .3396383.0521231.4392765.1559385.0996382.1042461.1498708.2461846.1498708.4256 0 .1649846-.0502326.2996-.1498708.4038461-.0996382.1040308-.2462016.1559385-.4392765.1559385h-2.8525064c-.1792249-.0142154-.3173127-.0717231-.4134367-.1720923-.0969509-.1005846-.1449096-.2119385-.1449096-.3338462z"/><path d="m74 26.4994386c0-.1276745.0454701-.2428151.1365812-.3452096.0911111-.1026069.2165812-.154229.3762393-.154229.1422222 0 .2591453.0516221.3502564.154229.0911111.1023945.1369231.2175351.1369231.3452096v6.0011228c0 .1276745-.045812.2428151-.1369231.3452096-.0911111.1026069-.2080342.154229-.3502564.154229-.1596581 0-.2851282-.0516221-.3762393-.154229-.0911111-.1023945-.1365812-.2175351-.1365812-.3452096z"/><path d="m77.7609482 30.3640547h1.4970285l-.7388232-2.6332982zm3.2241477 1.9537374c.0318557.120622.0126655.2459161-.0577625.3771563-.0704281.1310278-.1919022.2210696-.3646141.2705501-.1596626.0424726-.3022459.0282443-.4269822-.0424725-.1247364-.0705045-.2032244-.1660677-.2350802-.2866898l-.3454238-1.231704h-2.0915413l-.3552109 1.2423222c-.0383804.1204097-.1199388.2161853-.2444833.2869021-.1247364.0705044-.2638654.0847327-.417579.0422602-.172712-.0496929-.296105-.1395224-.3694117-.2707626-.0734985-.1308154-.0946077-.2565342-.0623681-.3769439l1.8808328-5.882236c.0318557-.1204097.103819-.2248922.2158899-.3134475.111687-.0885552.2477456-.1327267.407792-.1327267.1533298 0 .2878532.0441715.4029945.1327267.1149493.0885553.1884479.1930378.2206874.3134475z"/><path d="m83 26.498697c0-.1274849.0548924-.2424546.1644776-.344697.1099845-.1024545.2547008-.154.4343487-.154.1461136 0 .2694718.0409394.3692762.1221818.0998044.0810303.1628808.1747879.1894287.2808485l2.6849376 4.1681818v-4.0725151c0-.1274849.0530959-.2424546.1594874-.344697.1063914-.1024545.2529043-.154.4393389-.154.1660745 0 .30101.0515455.4042077.154.1029981.1022424.1544972.2172121.1544972.344697v6.0030303c0 .1270606-.0514991.2420303-.1544972.3446969-.1031977.1022425-.2381332.1535758-.4042077.1535758-.1465129 0-.267875-.0301212-.3644856-.0899394-.0964111-.0602424-.1644777-.1397879-.2043994-.2386364l-.0299413-.0530303-2.6747575-4.1259697v4.0093031c0 .1270606-.0514991.2420303-.1548964.3446969-.1031977.1022425-.241327.1535758-.4139886.1535758-.1796479 0-.3243642-.0513333-.4343487-.1535758-.1095852-.1026666-.1644776-.2176363-.1644776-.3446969z"/><path d="m90 26.4994386c0-.1276745.045812-.2428151.1369231-.3452096.0911111-.1026069.2162393-.154229.3758974-.154229.1425641 0 .2594872.0516221.3505983.154229.0911111.1023945.1365812.2175351.1365812.3452096v6.0011228c0 .1276745-.0454701.2428151-.1365812.3452096-.0911111.1026069-.2080342.154229-.3505983.154229-.1596581 0-.2847863-.0516221-.3758974-.154229-.0911111-.1023945-.1369231-.2175351-.1369231-.3452096z"/></g></g></svg>